# xmcd
#
# Track frame offsets: 
#        150
#        20485
#        44947
#        67530
#        89595
#        110320
#        134072
#        155305
#        171905
#        192032
#        215630
#        242885
#        267317
#        290272
#
# Disc length: 4226 seconds
#
# Revision: 9
# Processed by: cddbd v1.5.2PL0 Copyright (c) Steve Scherf et al.
# Submitted via: ExactAudioCopy v1.0b3
#
DISCID=cf10800e
DTITLE=Mark Knopfler - Golden Heart
DYEAR=1996
DGENRE=Rock
TTITLE0=Darling Pretty
TTITLE1=Imelda
TTITLE2=Golden Heart
TTITLE3=No Can Do
TTITLE4=Vic And Ray
TTITLE5=Don't You Get It
TTITLE6=A Night In Summer Long Ago
TTITLE7=Cannibals
TTITLE8=I'm The Fool
TTITLE9=Je Suis Désolé
TTITLE10=Rüdiger
TTITLE11=Nobody's Got The Gun
TTITLE12=Done With Bonaparte
TTITLE13=Are We In Trouble Now
EXTD=Golden Heart, 1996, Vertigo 514 732-2 YEAR: 1996 ID3G: 17
EXTT0=
EXTT1=
EXTT2=
EXTT3=
EXTT4=
EXTT5=
EXTT6=
EXTT7=
EXTT8=
EXTT9=
EXTT10=
EXTT11=
EXTT12=
EXTT13=
PLAYORDER=
